<?xml version="1.0" encoding="utf-8"?>
<svg width="1024" height="1024" viewBox="0 0 1024 1024" fill="none" xmlns="http://www.w3.org/2000/svg">
  <style>
    @media (prefers-color-scheme: dark) {
      path {
        --webkit-filter: invert(100%);
        filter: invert(100%);
      }
    }
  </style>
  <path d="M896 0H128C57.3076 0 0 57.3076 0 128V896C0 966.692 57.3076 1024 128 1024H896C966.692 1024 1024 966.692 1024 896V128C1024 57.3076 966.692 0 896 0Z" fill="black"/>
  <path d="M512 293.144C444.105 293.144 378.99 320.115 330.981 368.124C282.971 416.134 256 481.248 256 549.144C256.044 613.315 280.188 675.13 323.649 722.344C367.11 769.559 426.718 798.728 490.667 804.076V524.065C478.202 519.659 467.409 511.5 459.769 500.711C452.129 489.921 448.017 477.031 448 463.81C448 446.836 454.743 430.558 466.745 418.555C478.747 406.553 495.026 399.81 512 399.81C520.405 399.81 528.727 401.466 536.492 404.682C544.257 407.898 551.312 412.612 557.255 418.555C563.198 424.498 567.912 431.554 571.128 439.318C574.345 447.083 576 455.406 576 463.81C575.985 477.032 571.874 489.925 564.234 500.717C556.594 511.508 545.799 519.668 533.333 524.076V804.107C597.287 798.759 656.9 769.585 700.361 722.364C743.823 675.143 767.963 613.321 768 549.144C768 515.525 761.378 482.236 748.513 451.177C735.648 420.117 716.791 391.896 693.019 368.124C669.247 344.352 641.026 325.496 609.967 312.63C578.908 299.765 545.618 293.144 512 293.144ZM511.896 805.138C511.931 805.14 511.965 805.141 512 805.142C512.049 805.141 512.097 805.14 512.146 805.138H511.896Z" fill="white"/>
</svg>
